<svg width="449" height="449" viewBox="0 0 449 449" fill="none" xmlns="http://www.w3.org/2000/svg">
<mask id="mask0_1332_317346" style="mask-type:alpha" maskUnits="userSpaceOnUse" x="0" y="0" width="449" height="449">
<circle cx="224.459" cy="224.5" r="224" fill="#D9D9D9"/>
</mask>
<g mask="url(#mask0_1332_317346)">
<path d="M178.52 134.132C172.803 131.006 170.197 133.611 168.127 131.006C166.057 128.401 173.845 121.655 158.242 114.896C158.242 114.896 157.2 100.335 135.893 99.814C114.586 99.2929 120.304 114.375 114.586 118.008C108.869 121.642 107.306 115.938 101.589 119.571C95.8712 123.205 98.4626 130.54 93.7872 131.527C89.1118 132.514 82.8185 126.852 77.156 130.485C71.4934 134.118 71.4523 137.286 68.8335 137.286C66.2148 137.286 61.0458 135.202 57.8649 137.286C54.684 139.37 51.1055 141.961 51.1055 141.961H182.633C182.633 141.961 184.251 137.286 178.52 134.132Z" fill="white"/>
<path d="M444.866 239.871C436.392 235.25 432.526 239.089 429.455 235.25C426.383 231.411 437.928 221.375 414.825 211.366C414.825 211.366 413.29 189.799 381.7 189.031C350.11 188.263 358.597 210.598 350.165 215.986C341.733 221.375 339.388 212.915 330.97 218.304C322.552 223.692 326.35 234.469 319.412 236.018C312.474 237.567 303.247 229.08 294.732 234.469C286.218 239.857 286.259 244.491 282.393 244.491C278.526 244.491 270.835 241.406 266.214 244.491C261.593 247.576 256.205 251.415 256.205 251.415H451.022C451.022 251.415 453.339 244.491 444.866 239.871Z" fill="white"/>
<path d="M149.727 323.464C141.254 318.844 137.387 322.683 134.316 318.844C131.245 315.005 142.872 304.969 119.714 294.96C119.714 294.96 118.179 273.393 86.6026 272.625C55.0267 271.857 63.4999 294.192 55.0678 299.58C46.6357 304.969 44.2774 296.495 35.8041 301.897C27.3308 307.299 31.1424 318.062 24.2185 319.639C17.2945 321.216 8.03975 312.701 -0.460941 318.09C-8.96164 323.478 -8.93421 328.112 -12.8007 328.112C-16.6671 328.112 -24.3451 325.027 -28.9657 328.112C-33.5862 331.197 -38.9883 335.036 -38.9883 335.036H155.911C155.911 335.036 158.228 328.085 149.727 323.464Z" fill="white"/>
<path d="M381.671 320.709C381.671 320.709 360.131 317.02 349.053 304.091C337.975 291.162 278.895 221.634 278.895 221.634C278.895 221.634 267.817 217.315 245.043 221.634L272.122 329.95L381.671 320.709Z" fill="#8E98A8"/>
<path opacity="0.5" d="M381.671 320.709C381.671 320.709 360.131 317.02 349.053 304.091C337.975 291.162 278.895 221.634 278.895 221.634C278.895 221.634 267.817 217.315 245.043 221.634L272.122 329.95L381.671 320.709Z" fill="white"/>
<path d="M425.313 318.873C425.313 318.873 283.763 320.093 233.91 333.639V344.101C233.91 344.101 299.859 364.968 389.665 384.918C400.077 387.232 410.711 388.404 421.378 388.414H451.857V318.27L425.313 318.873Z" fill="#8E98A8"/>
<path opacity="0.5" d="M425.313 318.873C425.313 318.873 283.763 320.093 233.91 333.639V344.101C233.91 344.101 299.859 364.968 389.665 384.918C400.077 387.232 410.711 388.404 421.378 388.414H451.857V318.27L425.313 318.873Z" fill="white"/>
<g opacity="0.3">
<path d="M271.41 327.1C304.59 323.11 346.517 321.026 378.244 319.957C371.718 318.339 357.417 313.842 349.054 304.093C346.915 301.598 342.98 296.991 338.085 291.191C314.777 307.288 287.52 316.296 269.901 320.862L271.41 327.1Z" fill="#676879"/>
<path d="M267.639 312.072C297.803 302.063 308.1 278.782 311.24 259.696L278.882 221.635C277.807 221.252 276.702 220.959 275.578 220.758C276.675 242.311 268.86 263.673 259.824 280.784L267.639 312.072Z" fill="#676879"/>
<path d="M381.671 365.022C357.225 362.143 276.098 347.705 241.355 341.453V331.855C238.722 332.418 236.241 333.021 233.965 333.638V344.099H234.088L234.431 344.209L238.133 345.361L241.273 346.32C260.838 352.243 317.491 368.847 389.555 384.861C399.968 387.175 410.601 388.348 421.268 388.358H451.747V365.803C433.923 366.64 402.882 367.517 381.671 365.022Z" fill="#676879"/>
<path d="M270.285 344.719L325.663 342.251L286.903 332.406H265.363L270.285 344.719Z" fill="#676879"/>
</g>
<path d="M451.831 377.746H-44.5V412.023H451.831V377.746Z" fill="#676879" stroke="#8E98A8" stroke-linecap="round" stroke-linejoin="round"/>
<path d="M451.831 251.605H-44.5V259.832H451.831V251.605Z" fill="#8E98A8" stroke="#8E98A8" stroke-linecap="round" stroke-linejoin="round"/>
<path d="M17.1992 21.2656V396.941" stroke="#8E98A8" stroke-linecap="round" stroke-linejoin="round"/>
<path d="M205.037 21.2656V396.941" stroke="#8E98A8" stroke-linecap="round" stroke-linejoin="round"/>
<path d="M392.875 21.2656V396.941" stroke="#8E98A8" stroke-linecap="round" stroke-linejoin="round"/>
<path d="M-39.6875 118.615C124.143 118.477 288.672 118.477 451.831 118.615" stroke="#8E98A8" stroke-linecap="round" stroke-linejoin="round"/>
<path d="M72.6865 175.867L76.9917 182.01" stroke="#8E98A8" stroke-miterlimit="10"/>
<path d="M32.7461 119.008L67.0642 167.873" stroke="#8E98A8" stroke-miterlimit="10"/>
<path d="M262.416 319.105L266.721 325.248" stroke="#1F2633" stroke-miterlimit="10"/>
<path d="M222.477 262.246L256.795 311.111" stroke="#8E98A8" stroke-miterlimit="10"/>
<path d="M278.156 371.602L282.475 377.73" stroke="#1F2633" stroke-miterlimit="10"/>
<path d="M238.217 314.746L272.549 363.611" stroke="#8E98A8" stroke-miterlimit="10"/>
<path d="M122.183 87.3789L126.488 93.5213" stroke="#8E98A8" stroke-miterlimit="10"/>
<path d="M82.2432 30.5195L116.561 79.3848" stroke="#8E98A8" stroke-miterlimit="10"/>
<path d="M284.792 58.4766L289.097 64.6053" stroke="#1F2633" stroke-miterlimit="10"/>
<path d="M244.853 1.61719L279.171 50.4825" stroke="#8E98A8" stroke-miterlimit="10"/>
<path d="M439.395 313.855L443.7 319.998" stroke="#1F2633" stroke-miterlimit="10"/>
<path d="M399.455 256.992L433.773 305.857" stroke="#8E98A8" stroke-miterlimit="10"/>
<path d="M64.4326 317.609L68.7378 323.738" stroke="#8E98A8" stroke-miterlimit="10"/>
<path d="M24.4932 260.75L58.825 309.615" stroke="#8E98A8" stroke-miterlimit="10"/>
<path d="M95.1846 66.3867L99.4898 72.5154" stroke="#8E98A8" stroke-miterlimit="10"/>
<path d="M55.2461 9.52734L89.5642 58.3926" stroke="#8E98A8" stroke-miterlimit="10"/>
<path d="M318.314 221.773L322.62 227.902" stroke="#1F2633" stroke-miterlimit="10"/>
<path d="M278.376 164.91L312.708 213.775" stroke="#1F2633" stroke-miterlimit="10"/>
<path d="M428.51 53.2539H185.829C181.286 53.2539 177.603 56.937 177.603 61.4804V199.959C177.603 204.503 181.286 208.186 185.829 208.186H428.51C433.053 208.186 436.737 204.503 436.737 199.959V61.4804C436.737 56.937 433.053 53.2539 428.51 53.2539Z" fill="#8E98A8" stroke="#8E98A8" stroke-linecap="round" stroke-linejoin="round"/>
<path d="M175.97 94.3984H437.695" stroke="white" stroke-linecap="round" stroke-linejoin="round"/>
<path d="M244.442 77.5898H369.224" stroke="white" stroke-width="2" stroke-linecap="round" stroke-linejoin="round"/>
<path d="M240.918 95.0586V206.76" stroke="white" stroke-linecap="round" stroke-linejoin="round"/>
<path d="M309.102 95.0586V206.76" stroke="white" stroke-linecap="round" stroke-linejoin="round"/>
<path d="M377.299 95.0586V206.76" stroke="white" stroke-linecap="round" stroke-linejoin="round"/>
<path d="M185.704 109.344H201.951" stroke="white" stroke-linecap="round" stroke-linejoin="round"/>
<path d="M185.704 117.133H207.669" stroke="white" stroke-linecap="round" stroke-linejoin="round"/>
<path d="M185.704 124.934H201.951" stroke="white" stroke-linecap="round" stroke-linejoin="round"/>
<path d="M185.704 132.723H214.702" stroke="white" stroke-linecap="round" stroke-linejoin="round"/>
<path d="M185.704 140.508H201.951" stroke="white" stroke-linecap="round" stroke-linejoin="round"/>
<path d="M185.704 148.312H207.271" stroke="white" stroke-linecap="round" stroke-linejoin="round"/>
<path d="M185.704 156.098H201.951" stroke="white" stroke-linecap="round" stroke-linejoin="round"/>
<path d="M185.704 163.898H219.789" stroke="white" stroke-linecap="round" stroke-linejoin="round"/>
<path d="M185.704 171.691H201.951" stroke="white" stroke-linecap="round" stroke-linejoin="round"/>
<path d="M185.704 179.477H208.45" stroke="white" stroke-linecap="round" stroke-linejoin="round"/>
<path d="M185.704 187.277H201.951" stroke="white" stroke-linecap="round" stroke-linejoin="round"/>
<path d="M185.704 195.062H201.951" stroke="white" stroke-linecap="round" stroke-linejoin="round"/>
<path d="M255.341 109.344H271.574" stroke="white" stroke-linecap="round" stroke-linejoin="round"/>
<path d="M255.341 117.133H277.292" stroke="white" stroke-linecap="round" stroke-linejoin="round"/>
<path d="M255.341 124.934H271.574" stroke="white" stroke-linecap="round" stroke-linejoin="round"/>
<path d="M255.341 132.723H284.339" stroke="white" stroke-linecap="round" stroke-linejoin="round"/>
<path d="M255.341 140.508H271.574" stroke="white" stroke-linecap="round" stroke-linejoin="round"/>
<path d="M255.341 148.312H276.908" stroke="white" stroke-linecap="round" stroke-linejoin="round"/>
<path d="M255.341 156.098H271.574" stroke="white" stroke-linecap="round" stroke-linejoin="round"/>
<path d="M255.341 163.898H289.426" stroke="white" stroke-linecap="round" stroke-linejoin="round"/>
<path d="M255.341 171.691H271.574" stroke="white" stroke-linecap="round" stroke-linejoin="round"/>
<path d="M255.341 179.477H278.073" stroke="white" stroke-linecap="round" stroke-linejoin="round"/>
<path d="M255.341 187.277H271.574" stroke="white" stroke-linecap="round" stroke-linejoin="round"/>
<path d="M255.341 195.062H271.574" stroke="white" stroke-linecap="round" stroke-linejoin="round"/>
<path d="M324.964 109.344H341.197" stroke="white" stroke-linecap="round" stroke-linejoin="round"/>
<path d="M324.964 117.133H346.929" stroke="white" stroke-linecap="round" stroke-linejoin="round"/>
<path d="M324.964 124.934H341.197" stroke="white" stroke-linecap="round" stroke-linejoin="round"/>
<path d="M324.964 132.723H353.962" stroke="white" stroke-linecap="round" stroke-linejoin="round"/>
<path d="M324.964 140.508H341.197" stroke="white" stroke-linecap="round" stroke-linejoin="round"/>
<path d="M324.964 148.312H346.531" stroke="white" stroke-linecap="round" stroke-linejoin="round"/>
<path d="M324.964 156.098H341.197" stroke="white" stroke-linecap="round" stroke-linejoin="round"/>
<path d="M324.964 163.898H359.049" stroke="white" stroke-linecap="round" stroke-linejoin="round"/>
<path d="M324.964 171.691H341.197" stroke="white" stroke-linecap="round" stroke-linejoin="round"/>
<path d="M324.964 179.477H347.71" stroke="white" stroke-linecap="round" stroke-linejoin="round"/>
<path d="M324.964 187.277H341.197" stroke="white" stroke-linecap="round" stroke-linejoin="round"/>
<path d="M324.964 195.062H341.197" stroke="white" stroke-linecap="round" stroke-linejoin="round"/>
<path d="M394.589 109.344H410.836" stroke="white" stroke-linecap="round" stroke-linejoin="round"/>
<path d="M394.589 117.133H416.554" stroke="white" stroke-linecap="round" stroke-linejoin="round"/>
<path d="M394.589 124.934H410.836" stroke="white" stroke-linecap="round" stroke-linejoin="round"/>
<path d="M394.589 132.723H423.587" stroke="white" stroke-linecap="round" stroke-linejoin="round"/>
<path d="M394.589 140.508H410.836" stroke="white" stroke-linecap="round" stroke-linejoin="round"/>
<path d="M394.589 148.312H416.156" stroke="white" stroke-linecap="round" stroke-linejoin="round"/>
<path d="M394.589 156.098H410.836" stroke="white" stroke-linecap="round" stroke-linejoin="round"/>
<path d="M394.589 163.898H428.674" stroke="white" stroke-linecap="round" stroke-linejoin="round"/>
<path d="M394.589 171.691H410.836" stroke="white" stroke-linecap="round" stroke-linejoin="round"/>
<path d="M394.589 179.477H417.335" stroke="white" stroke-linecap="round" stroke-linejoin="round"/>
<path d="M394.589 187.277H410.836" stroke="white" stroke-linecap="round" stroke-linejoin="round"/>
<path d="M394.589 195.062H410.836" stroke="white" stroke-linecap="round" stroke-linejoin="round"/>
<path d="M199.84 83.2392C199.84 82.773 199.84 82.3205 199.84 81.8681C199.84 81.8681 199.922 81.7172 199.991 81.6624L201.609 80.4421C201.685 80.3752 201.734 80.2824 201.746 80.1816C201.746 78.5226 201.746 76.8636 201.746 75.2046C201.751 75.1453 201.751 75.0857 201.746 75.0264L194.054 77.4258C194.054 77.3435 194.054 77.2749 194.054 77.2201C194.054 76.6991 194.054 76.1918 194.054 75.6708C194.051 75.6139 194.065 75.5575 194.095 75.5087C194.124 75.4599 194.167 75.4209 194.219 75.3966L201.595 70.7897C201.659 70.7568 201.712 70.7051 201.746 70.6414C201.781 70.5777 201.795 70.5051 201.787 70.4333C201.787 68.7605 201.787 67.0878 201.787 65.4288C201.775 65.1759 201.829 64.9242 201.944 64.6986C202.059 64.4731 202.232 64.2816 202.444 64.143C202.655 64.0045 202.9 63.9238 203.153 63.9088C203.406 63.8938 203.658 63.9452 203.885 64.0577C204.143 64.1758 204.358 64.3711 204.5 64.6167C204.643 64.8623 204.706 65.1461 204.68 65.4288V70.4196C204.674 70.5052 204.693 70.5907 204.735 70.6659C204.776 70.7412 204.838 70.8031 204.913 70.8446C207.354 72.3528 209.785 73.8701 212.207 75.3966C212.278 75.4277 212.337 75.4801 212.376 75.5465C212.415 75.6129 212.433 75.6899 212.427 75.7668C212.427 76.3152 212.427 76.8636 212.427 77.4669C209.849 76.658 207.299 75.849 204.707 75.0538C204.707 75.1361 204.707 75.1909 204.707 75.2458V80.1131C204.7 80.1867 204.715 80.2608 204.749 80.3265C204.783 80.3922 204.835 80.4466 204.899 80.4833L206.503 81.6898C206.581 81.7618 206.629 81.8591 206.641 81.964C206.641 82.3754 206.641 82.8004 206.641 83.2392L205.269 82.8552C204.666 82.6907 204.077 82.4988 203.487 82.3479C203.344 82.3068 203.192 82.3068 203.048 82.3479L200.032 83.2117L199.84 83.2392Z" fill="white"/>
<path d="M203.158 86.5421C210.291 86.5421 216.073 80.7596 216.073 73.6265C216.073 66.4934 210.291 60.7109 203.158 60.7109C196.025 60.7109 190.242 66.4934 190.242 73.6265C190.242 80.7596 196.025 86.5421 203.158 86.5421Z" stroke="white" stroke-linecap="round" stroke-linejoin="round"/>
<path d="M185.142 358.592C184.778 358.592 184.429 358.448 184.172 358.191C183.915 357.934 183.771 357.585 183.771 357.221V277.918C183.771 277.554 183.915 277.206 184.172 276.948C184.429 276.691 184.778 276.547 185.142 276.547C185.505 276.547 185.854 276.691 186.111 276.948C186.368 277.206 186.513 277.554 186.513 277.918V357.221C186.513 357.585 186.368 357.934 186.111 358.191C185.854 358.448 185.505 358.592 185.142 358.592Z" fill="#1F2633"/>
<path d="M185.142 293.395C184.596 293.395 184.073 293.179 183.687 292.793C183.302 292.407 183.085 291.884 183.085 291.339V277.916C183.085 277.371 183.302 276.847 183.687 276.462C184.073 276.076 184.596 275.859 185.142 275.859C185.687 275.859 186.21 276.076 186.596 276.462C186.982 276.847 187.198 277.371 187.198 277.916V291.339C187.195 291.883 186.977 292.404 186.592 292.789C186.207 293.174 185.686 293.392 185.142 293.395Z" fill="#1F2633"/>
<path d="M181.838 358.592C181.474 358.592 181.126 358.448 180.868 358.191C180.611 357.934 180.467 357.585 180.467 357.221V277.918C180.467 277.554 180.611 277.206 180.868 276.948C181.126 276.691 181.474 276.547 181.838 276.547C182.202 276.547 182.55 276.691 182.807 276.948C183.065 277.206 183.209 277.554 183.209 277.918V357.221C183.209 357.585 183.065 357.934 182.807 358.191C182.55 358.448 182.202 358.592 181.838 358.592Z" fill="#1F2633"/>
<path d="M181.838 293.395C181.292 293.395 180.769 293.179 180.384 292.793C179.998 292.407 179.781 291.884 179.781 291.339V277.916C179.781 277.371 179.998 276.847 180.384 276.462C180.769 276.076 181.292 275.859 181.838 275.859C182.383 275.859 182.906 276.076 183.292 276.462C183.678 276.847 183.894 277.371 183.894 277.916V291.339C183.894 291.884 183.678 292.407 183.292 292.793C182.906 293.179 182.383 293.395 181.838 293.395Z" fill="#1F2633"/>
<path d="M185.141 275.859H181.837V279.877H185.114L185.141 275.859Z" fill="#1F2633"/>
<path d="M216.004 346.543H184.922C180.886 346.543 177.614 349.815 177.614 353.851V446.179C177.614 450.215 180.886 453.487 184.922 453.487H216.004C220.041 453.487 223.312 450.215 223.312 446.179V353.851C223.312 349.815 220.041 346.543 216.004 346.543Z" fill="white" stroke="#1F2633" stroke-linecap="round" stroke-linejoin="round"/>
<path d="M216.018 346.543H211.891C207.855 346.543 204.583 349.815 204.583 353.851V446.179C204.583 450.215 207.855 453.487 211.891 453.487H216.018C220.054 453.487 223.326 450.215 223.326 446.179V353.851C223.326 349.815 220.054 346.543 216.018 346.543Z" fill="#1F2633" stroke="#1F2633" stroke-linecap="round" stroke-linejoin="round"/>
<path d="M198.976 346.543C197.038 346.543 195.179 347.313 193.808 348.683C192.438 350.054 191.668 351.913 191.668 353.851V446.179C191.814 447.741 192.375 449.234 193.294 450.505C194.212 451.776 195.455 452.777 196.892 453.405" stroke="#1F2633" stroke-linecap="round" stroke-linejoin="round"/>
<path d="M84.6006 345.691C84.6006 345.691 89.5502 357.921 88.7138 368.712C87.8775 379.502 84.6006 396.97 86.9726 404.25C89.3445 411.531 94.5409 440.556 94.5409 440.556C94.5409 440.556 91.9221 443.463 91.9221 446.041C91.9221 448.618 92.7996 461.781 92.7996 461.781H94.5409L96.2959 448.673C97.016 448.994 97.6527 449.476 98.1567 450.083C98.6607 450.689 99.0186 451.403 99.2026 452.169C99.4905 454.5 100.368 461.191 101.533 461.493C102.987 461.643 104.453 461.643 105.907 461.493C105.907 461.493 107.648 460.327 106.785 459.45C105.53 458.302 104.707 456.758 104.454 455.076C103.276 451.394 102.589 447.572 102.411 443.71V399.835C102.411 387.002 104.152 377.103 104.742 365.737C105.117 359.333 104.919 352.91 104.152 346.541L84.6006 345.691Z" fill="white"/>
<mask id="mask1_1332_317346" style="mask-type:luminance" maskUnits="userSpaceOnUse" x="84" y="345" width="24" height="117">
<path d="M84.6016 345.688C84.6016 345.688 89.5512 357.918 88.7148 368.708C87.8784 379.498 84.6016 396.966 86.9735 404.246C89.3455 411.527 94.5419 440.553 94.5419 440.553C94.5419 440.553 91.9231 443.459 91.9231 446.037C91.9231 448.614 92.8006 461.777 92.8006 461.777H94.5419L96.2969 448.669C97.017 448.99 97.6537 449.472 98.1577 450.079C98.6617 450.685 99.0195 451.399 99.2036 452.166C99.4915 454.496 100.369 461.187 101.534 461.489C102.988 461.639 104.454 461.639 105.908 461.489C105.908 461.489 107.649 460.323 106.786 459.446C105.531 458.298 104.708 456.754 104.455 455.072C103.277 451.39 102.59 447.568 102.412 443.706V399.831C102.412 386.998 104.153 377.099 104.743 365.733C105.118 359.33 104.92 352.906 104.153 346.538L84.6016 345.688Z" fill="white"/>
</mask>
<g mask="url(#mask1_1332_317346)">
<path d="M85.1494 347.219C86.1262 349.985 86.9276 352.811 87.5488 355.678H104.797C104.674 351.442 104.345 348.453 104.194 347.219H85.1494Z" fill="#8E98A8"/>
<path opacity="0.5" d="M85.1494 347.219C86.1262 349.985 86.9276 352.811 87.5488 355.678H104.797C104.674 351.442 104.345 348.453 104.194 347.219H85.1494Z" fill="white"/>
</g>
<path d="M84.6006 345.691C84.6006 345.691 89.5502 357.921 88.7138 368.712C87.8775 379.502 84.6006 396.97 86.9726 404.25C89.3445 411.531 94.5409 440.556 94.5409 440.556C94.5409 440.556 91.9221 443.463 91.9221 446.041C91.9221 448.618 92.7996 461.781 92.7996 461.781H94.5409L96.2959 448.673C97.016 448.994 97.6527 449.476 98.1567 450.083C98.6607 450.689 99.0186 451.403 99.2026 452.169C99.4905 454.5 100.368 461.191 101.533 461.493C102.987 461.643 104.453 461.643 105.907 461.493C105.907 461.493 107.648 460.327 106.785 459.45C105.53 458.302 104.707 456.758 104.454 455.076C103.276 451.394 102.589 447.572 102.411 443.71V399.835C102.411 387.002 104.152 377.103 104.742 365.737C105.117 359.333 104.919 352.91 104.152 346.541L84.6006 345.691Z" stroke="#1F2633" stroke-linecap="round" stroke-linejoin="round"/>
<path d="M101.738 461.657H97.3647C97.3647 461.657 95.9937 461.548 95.8291 456.269C95.7713 453.421 95.4221 450.586 94.7871 447.81C95.605 447.551 96.4768 447.512 97.3144 447.697C98.1521 447.883 98.9261 448.285 99.5585 448.865C101.944 450.881 102.52 458.86 102.808 459.916C102.977 460.544 103.271 461.132 103.672 461.644L101.738 461.657Z" fill="white" stroke="#1F2633" stroke-linecap="round" stroke-linejoin="round"/>
<path d="M104.481 455.158C103.712 452.519 103.103 449.836 102.657 447.123C102.156 445.468 101.494 443.865 100.683 442.338C98.6538 438.842 94.568 440.597 94.568 440.597C94.568 440.597 91.9492 443.503 91.9492 446.081C91.9492 448.659 92.8267 461.821 92.8267 461.821H94.568L96.323 448.714C97.0431 449.034 97.6798 449.517 98.1838 450.123C98.6878 450.729 99.0456 451.443 99.2296 452.21C99.5176 454.541 100.395 461.231 101.56 461.533C103.015 461.683 104.48 461.683 105.934 461.533C105.934 461.533 107.675 460.368 106.812 459.49C105.565 458.353 104.743 456.825 104.481 455.158Z" fill="#1F2633" stroke="#1F2633" stroke-linecap="round" stroke-linejoin="round"/>
<path d="M112.708 347.57C112.708 347.57 115.45 356.043 114.957 360.033C114.463 364.023 101.493 376.225 99.9983 383.451C98.5038 390.677 95.0076 407.129 93.7736 414.108C92.5396 421.087 91.4976 425.214 89.3999 427.092C87.3021 428.971 83.3945 427.243 80.4604 430.561C77.5263 433.879 68.9434 444.135 68.9434 444.135L70.1362 445.204L80.2136 439.048C80.2136 439.048 84.8616 440.803 84.9576 443.559C85.1924 447.37 85.7242 451.156 86.548 454.884C87.165 457.16 91.4016 461.657 94.1164 462.302C96.8311 462.946 96.7626 459.56 95.6794 458.915C94.5963 458.271 93.0469 454.802 93.2937 450.524C93.5405 446.246 95.2544 433.66 96.9271 430.767C98.5998 427.874 113.394 396.421 121.113 386.44C128.832 376.458 131.341 367.245 133.082 364.763C134.824 362.281 134.824 356.29 134.824 353.054C134.818 351.047 134.653 349.043 134.33 347.062L112.708 347.57Z" fill="white"/>
<mask id="mask2_1332_317346" style="mask-type:luminance" maskUnits="userSpaceOnUse" x="68" y="347" width="67" height="116">
<path d="M112.709 347.57C112.709 347.57 115.451 356.043 114.958 360.033C114.464 364.023 101.494 376.225 99.9993 383.451C98.5048 390.677 95.0086 407.129 93.7746 414.108C92.5406 421.087 91.4986 425.214 89.4008 427.092C87.3031 428.971 83.3955 427.243 80.4614 430.561C77.5273 433.879 68.9443 444.135 68.9443 444.135L70.1372 445.204L80.2146 439.048C80.2146 439.048 84.8626 440.803 84.9585 443.559C85.1934 447.37 85.7251 451.156 86.549 454.884C87.166 457.16 91.4026 461.657 94.1174 462.302C96.8321 462.946 96.7635 459.56 95.6804 458.915C94.5972 458.271 93.0479 454.802 93.2947 450.524C93.5415 446.246 95.2554 433.66 96.9281 430.767C98.6008 427.874 113.395 396.421 121.114 386.44C128.833 376.458 131.342 367.245 133.083 364.763C134.825 362.281 134.825 356.29 134.825 353.054C134.819 351.047 134.654 349.043 134.331 347.062L112.709 347.57Z" fill="white"/>
</mask>
<g mask="url(#mask2_1332_317346)">
<path d="M112.709 347.569C113.552 350.227 114.216 352.939 114.697 355.686H134.866C134.866 354.713 134.866 353.808 134.866 353.054C134.855 351.102 134.699 349.155 134.399 347.227H127.105L112.709 347.569Z" fill="#8E98A8"/>
<path opacity="0.5" d="M112.709 347.569C113.552 350.227 114.216 352.939 114.697 355.686H134.866C134.866 354.713 134.866 353.808 134.866 353.054C134.855 351.102 134.699 349.155 134.399 347.227H127.105L112.709 347.569Z" fill="white"/>
</g>
<path d="M112.708 347.57C112.708 347.57 115.45 356.043 114.957 360.033C114.463 364.023 101.493 376.225 99.9983 383.451C98.5038 390.677 95.0076 407.129 93.7736 414.108C92.5396 421.087 91.4976 425.214 89.3999 427.092C87.3021 428.971 83.3945 427.243 80.4604 430.561C77.5263 433.879 68.9434 444.135 68.9434 444.135L70.1362 445.204L80.2136 439.048C80.2136 439.048 84.8616 440.803 84.9576 443.559C85.1924 447.37 85.7242 451.156 86.548 454.884C87.165 457.16 91.4016 461.657 94.1164 462.302C96.8311 462.946 96.7626 459.56 95.6794 458.915C94.5963 458.271 93.0469 454.802 93.2937 450.524C93.5405 446.246 95.2544 433.66 96.9271 430.767C98.5998 427.874 113.394 396.421 121.113 386.44C128.832 376.458 131.341 367.245 133.082 364.763C134.824 362.281 134.824 356.29 134.824 353.054C134.818 351.047 134.653 349.043 134.33 347.062L112.708 347.57Z" stroke="#1F2633" stroke-linecap="round" stroke-linejoin="round"/>
<path d="M80.1445 439.045C80.1445 439.045 82.3108 444.9 82.1463 447.889C81.9818 450.878 80.597 453.044 81.9544 455.375C83.3117 457.706 85.6288 461.079 94.0473 462.299C94.0473 462.299 89.7284 454.813 89.5227 449.808C89.317 444.804 88.5081 437.016 86.0402 436.385C83.5722 435.755 80.3365 435.81 80.1445 439.045Z" fill="white" stroke="#1F2633" stroke-linecap="round" stroke-linejoin="round"/>
<path d="M95.609 458.913C94.5258 458.337 92.9765 454.799 93.2233 450.521C89.9601 446.408 91.8522 440.211 89.6037 435.344C88.442 432.561 86.493 430.178 83.9959 428.488C82.6141 428.772 81.3626 429.499 80.4311 430.559C77.4833 433.89 68.9141 444.132 68.9141 444.132L70.1069 445.202L80.1843 439.046C80.1843 439.046 84.8323 440.801 84.9283 443.556C85.1631 447.367 85.6949 451.154 86.5187 454.882C87.1357 457.158 91.3723 461.655 94.0871 462.299C96.8018 462.943 96.6921 459.488 95.609 458.913Z" fill="#1F2633" stroke="#1F2633" stroke-linecap="round" stroke-linejoin="round"/>
<path d="M75.853 204.469C73.5138 207.673 71.6654 211.208 70.3687 214.958C68.6274 220.442 53.1754 263.329 55.8078 265.962C58.4403 268.594 84.9433 277.026 84.9433 277.026L89.317 265.084L73.865 257.79L83.4625 226.913C83.4625 226.913 86.0539 208.486 75.853 204.469Z" fill="#8E98A8" stroke="#1F2633" stroke-linecap="round" stroke-linejoin="round"/>
<path d="M61.9785 265.123C68.1895 264.368 73.8246 257.719 73.8246 257.719C73.913 260.944 72.9187 264.105 71.0002 266.699" stroke="#1F2633" stroke-linecap="round" stroke-linejoin="round"/>
<path d="M79.6236 236.482C79.6236 236.482 77.2653 234.521 72.5488 224.32" stroke="#1F2633" stroke-linecap="round" stroke-linejoin="round"/>
<path d="M79.2252 238.445C74.7989 236.448 70.4788 234.224 66.2822 231.781" stroke="#1F2633" stroke-linecap="round" stroke-linejoin="round"/>
<path d="M87.7953 266.754C87.7953 266.754 80.8028 278.408 76.1411 301.73C73.3231 317.196 72.4434 332.952 73.5224 348.635C73.5224 348.635 100.327 354.462 147.821 348.635C147.821 348.635 143.16 289.774 125.678 266.754H87.7953Z" fill="#8E98A8" stroke="#1F2633" stroke-linecap="round" stroke-linejoin="round"/>
<path d="M73.083 337.461C73.1516 344.316 73.5218 348.663 73.5218 348.663C73.5218 348.663 100.326 354.49 147.821 348.663C147.821 348.663 147.478 344.303 146.628 337.488C106.729 341.574 81.1724 338.64 73.083 337.461Z" fill="#1F2633" stroke="#1F2633" stroke-linecap="round" stroke-linejoin="round"/>
<path d="M91.2916 199.164C91.2916 199.164 78.184 202.372 75.8532 204.401C73.5224 206.431 74.6878 217.221 76.1411 224.213C77.5945 231.206 87.7953 266.717 87.7953 266.717H125.678C125.678 266.717 134.426 209.611 134.124 204.662C133.822 199.712 110.528 196.504 110.528 196.504L91.2916 199.164Z" fill="#8E98A8" stroke="#1F2633" stroke-linecap="round" stroke-linejoin="round"/>
<path d="M85.2861 257.719C86.7806 263.011 87.8501 266.754 87.8501 266.754H125.733C125.733 266.754 126.281 263.176 127.104 257.719H85.2861Z" fill="#1F2633" stroke="#1F2633" stroke-linecap="round" stroke-linejoin="round"/>
<path d="M168.099 268.909C169.599 269.569 171.188 270.004 172.815 270.198C174.529 270.198 180.329 267.634 182.687 268.059C185.046 268.484 189.762 275.998 190.406 277.067C191.051 278.137 187.925 279.096 186.759 280.07C184.812 281.674 183.071 280.207 183.332 279.426L183.757 277.712C183.757 277.712 181.837 276.533 180.535 277.712C178.927 279.098 176.872 279.858 174.749 279.851C172.171 279.851 166.604 275.998 166.604 275.998L168.099 268.909Z" fill="white" stroke="#1F2633" stroke-linecap="round" stroke-linejoin="round"/>
<path d="M123.347 238.5C123.347 238.5 124.512 261.219 125.965 263.563C127.419 265.908 143.447 273.161 151.317 275.505C156.566 276.996 161.926 278.068 167.345 278.714L169.675 268.225C169.675 268.225 149.575 257.147 145.49 254.514C141.404 251.882 138.785 249.852 138.785 249.852C138.785 249.852 137.62 218.962 137.332 213.135C137.044 207.308 137.044 204.387 134.425 202.934C131.608 201.691 128.679 200.718 125.678 200.027" fill="#8E98A8"/>
<path d="M123.347 238.5C123.347 238.5 124.512 261.219 125.965 263.563C127.419 265.908 143.447 273.161 151.317 275.505C156.566 276.996 161.926 278.068 167.345 278.714L169.675 268.225C169.675 268.225 149.575 257.147 145.49 254.514C141.404 251.882 138.785 249.852 138.785 249.852C138.785 249.852 137.62 218.962 137.332 213.135C137.044 207.308 137.044 204.387 134.425 202.934C131.608 201.691 128.679 200.718 125.678 200.027" stroke="#1F2633" stroke-linecap="round" stroke-linejoin="round"/>
<path d="M131.807 258.062C136.126 255.718 138.785 249.836 138.785 249.836C138.785 249.836 131.807 253.73 126.309 251.372" stroke="#1F2633" stroke-linecap="round" stroke-linejoin="round"/>
<path d="M99.8334 154.863C97.1906 155.632 94.7999 157.09 92.9061 159.087C91.0124 161.084 89.6839 163.549 89.0567 166.229C86.4243 175.827 88.4672 185.424 88.4672 188.962C88.4672 192.499 86.4243 207.896 84.3539 218.975C82.2836 230.053 79.3906 242.571 79.3906 242.571C79.3906 242.571 87.8502 244.614 91.9223 245.204L100.368 246.369L101.835 239.376L103.001 246.657C105.813 246.841 108.634 246.841 111.446 246.657C114.882 246.389 118.24 245.502 121.359 244.038L121.647 240.24L124.554 243.449C126.251 242.998 127.911 242.416 129.517 241.707C132.136 240.542 136.208 238.211 136.208 238.211C136.208 238.211 122.305 203.235 120.523 195.954C118.741 188.674 121.976 184.588 123.142 175.553C124.307 166.517 118.192 153.41 113.544 152.532C112.161 152.301 110.742 152.421 109.417 152.881C108.093 153.341 106.905 154.126 105.962 155.165C105.03 154.654 103.994 154.361 102.932 154.309C101.871 154.257 100.811 154.446 99.8334 154.863Z" fill="#1F2633" stroke="#1F2633" stroke-linecap="round" stroke-linejoin="round"/>
</g>
</svg>
